<svg width="1056" height="816" viewBox="0 0 1056 816" fill="none" xmlns="http://www.w3.org/2000/svg">
<rect width="1056" height="816" fill="white"/>
<path d="M146.667 0L162.963 45.56C166.236 54.5732 170.166 65.4513 174.192 77.8144C211.188 43.702 252.408 16.8238 285.024 3.2055e-06L146.667 0Z" fill="url(#paint0_linear_665_35)"/>
<path d="M139.834 400.915C160.272 357.887 181.826 314.867 191.481 272C207.761 199.723 190.214 127.012 174.192 77.8144C101.791 144.574 45.5715 239.04 101.701 340.077C113.758 361.781 126.576 381.931 139.834 400.915Z" fill="url(#paint1_linear_665_35)"/>
<path d="M93.7037 544C89.6296 634.44 154.815 725.56 187.407 770.44L220 816H379C373.256 625.988 243.153 548.848 139.834 400.915C117.153 448.666 95.8467 496.427 93.7037 544Z" fill="url(#paint2_linear_665_35)"/>
<path d="M162.963 45.56L146.667 6.411e-06L3.56685e-05 0L3.3677e-05 45.56L2.3779e-05 272L1.18895e-05 544L1.99149e-06 770.44L0 816H48H220L187.407 770.44C154.815 725.56 89.6296 634.44 93.7037 544C95.8467 496.427 117.153 448.666 139.834 400.915C126.576 381.931 113.758 361.781 101.701 340.077C45.5715 239.04 101.791 144.574 174.192 77.8144C170.166 65.4514 166.236 54.5732 162.963 45.56Z" fill="#3E9B63"/>
<path fill-rule="evenodd" clip-rule="evenodd" d="M288 816L252 782C216 748 144 680 120 612C96 544 120 476 138 408C156 340 168 272 168 204C168 136 156 68 150 34L144 6.29444e-06L-5.15091e-06 1.25889e-05L-3.66473e-06 34C-2.17854e-06 68 7.93834e-07 136 3.76621e-06 204C6.73858e-06 272 9.71096e-06 340 1.26833e-05 408C1.56557e-05 476 1.86281e-05 544 2.16005e-05 612C2.45728e-05 680 2.75452e-05 748 2.90314e-05 782L3.05176e-05 816L288 816Z" fill="url(#paint3_linear_665_35)" fill-opacity="0.3"/>
<defs>
<linearGradient id="paint0_linear_665_35" x1="331" y1="830" x2="148" y2="-38.5" gradientUnits="userSpaceOnUse">
<stop stop-color="#39B54A"/>
<stop offset="1" stop-color="#39B54A" stop-opacity="0"/>
</linearGradient>
<linearGradient id="paint1_linear_665_35" x1="331" y1="830" x2="148" y2="-38.5" gradientUnits="userSpaceOnUse">
<stop stop-color="#39B54A"/>
<stop offset="1" stop-color="#39B54A" stop-opacity="0"/>
</linearGradient>
<linearGradient id="paint2_linear_665_35" x1="331" y1="830" x2="148" y2="-38.5" gradientUnits="userSpaceOnUse">
<stop stop-color="#39B54A"/>
<stop offset="1" stop-color="#39B54A" stop-opacity="0"/>
</linearGradient>
<linearGradient id="paint3_linear_665_35" x1="144" y1="784.5" x2="144" y2="23" gradientUnits="userSpaceOnUse">
<stop stop-color="#A4FFB0"/>
<stop offset="1" stop-color="white" stop-opacity="0"/>
</linearGradient>
</defs>
</svg>
