<svg width="500" height="500" viewBox="0 0 500 500" fill="none" xmlns="http://www.w3.org/2000/svg">
<rect width="500" height="500" fill="white" fill-opacity="0.6"/>
<path d="M96.4346 232.5L148.935 144H179.935L134.935 220.5H153.962L181.574 174H210.771L171.935 241.5C163.935 255.5 148.935 255.5 142.435 255.5H113.935C93.9346 255.5 90.9346 242 96.4346 232.5Z" fill="#00B45C"/>
<path d="M219.435 255.5H190.435L242.849 166H224.849L237.435 144H320.253L306.843 166H272.343L219.435 255.5Z" fill="#00B45C"/>
<path d="M299.061 181H276.358L258.555 211H281.259L299.061 181Z" fill="#00B45C"/>
<path d="M316.435 219L320.935 237L374.982 144H405.352L340.435 255.5H298.023L288.935 219H316.435Z" fill="#00B45C"/>
<path fill-rule="evenodd" clip-rule="evenodd" d="M146.657 140H186.928L141.928 216.5H151.685L179.297 170H217.688L175.408 243.485C175.406 243.486 175.405 243.488 175.404 243.49C166.248 259.507 149.13 259.502 142.641 259.5C142.571 259.5 142.502 259.5 142.435 259.5H113.935C103.087 259.5 95.6563 255.792 92.1345 249.521C88.7023 243.41 89.7169 236.12 92.9729 230.496L92.9835 230.477L146.657 140ZM171.935 241.5L210.771 174H181.574L153.962 220.5H134.935L179.935 144H148.935L96.4346 232.5C90.9346 242 93.9346 255.5 113.935 255.5H142.435C148.935 255.5 163.935 255.5 171.935 241.5ZM183.457 259.5L235.871 170H217.952L235.115 140H327.376L309.09 170H274.625L221.717 259.5H183.457ZM272.343 166H306.843L320.253 144H237.435L224.849 166H242.849L190.435 255.5H219.435L272.343 166ZM274.08 177H306.086L283.536 215H251.531L274.08 177ZM316.435 219L320.935 237L374.982 144H405.352L340.435 255.5H298.023L288.935 219H316.435ZM322.426 226.473L372.68 140H412.31L342.734 259.5H294.897L283.816 215H319.558L322.426 226.473ZM276.358 181H299.061L281.259 211H258.555L276.358 181Z" fill="#BABAB8"/>
<path d="M70 292.937H74.1848V307.115C74.1848 308.336 74.2891 309.199 74.4976 309.706C74.716 310.212 75.0684 310.619 75.5549 310.927C76.0514 311.225 76.6471 311.374 77.342 311.374C78.0767 311.374 78.7072 311.205 79.2334 310.867C79.7695 310.53 80.1369 310.103 80.3354 309.587C80.5439 309.06 80.6482 308.063 80.6482 306.593V292.937H84.833V305.998C84.833 308.202 84.7089 309.731 84.4607 310.584C84.2125 311.438 83.7359 312.262 83.031 313.057C82.336 313.851 81.5318 314.442 80.6184 314.829C79.705 315.206 78.6427 315.395 77.4314 315.395C75.8429 315.395 74.4578 315.032 73.2764 314.308C72.1048 313.573 71.2659 312.66 70.7595 311.567C70.2532 310.465 70 308.609 70 305.998V292.937Z" fill="black"/>
<path d="M89.2412 298.641H93.292V300.294C94.2153 299.519 95.0493 298.983 95.7939 298.685C96.5485 298.378 97.318 298.224 98.1023 298.224C99.7107 298.224 101.076 298.785 102.198 299.906C103.141 300.86 103.613 302.269 103.613 304.136V314.844H99.5916V307.74C99.5916 305.804 99.5022 304.518 99.3235 303.883C99.1547 303.247 98.8519 302.766 98.415 302.438C97.9881 302.101 97.4569 301.932 96.8215 301.932C95.9975 301.932 95.2876 302.21 94.6919 302.766C94.1061 303.312 93.6991 304.071 93.4707 305.044C93.3516 305.551 93.292 306.648 93.292 308.336V314.844H89.2412V298.641Z" fill="black"/>
<path d="M113.144 298.641H117.284L121.379 308.202L125.46 298.641H129.585L122.69 314.844H120.054L113.144 298.641Z" fill="black"/>
<path d="M148.216 307.919H135.155C135.344 309.07 135.845 309.989 136.659 310.674C137.483 311.349 138.531 311.687 139.802 311.687C141.321 311.687 142.626 311.155 143.718 310.093L147.144 311.701C146.29 312.913 145.267 313.811 144.076 314.397C142.884 314.973 141.469 315.261 139.831 315.261C137.29 315.261 135.22 314.462 133.621 312.863C132.023 311.255 131.223 309.244 131.223 306.832C131.223 304.359 132.018 302.309 133.606 300.681C135.205 299.043 137.205 298.224 139.608 298.224C142.16 298.224 144.235 299.043 145.833 300.681C147.431 302.309 148.231 304.464 148.231 307.144L148.216 307.919ZM144.135 304.717C143.867 303.813 143.336 303.079 142.542 302.513C141.757 301.947 140.844 301.664 139.802 301.664C138.67 301.664 137.677 301.982 136.823 302.617C136.287 303.014 135.79 303.714 135.334 304.717H144.135Z" fill="black"/>
<path d="M150.569 298.641H154.054V300.681C154.431 299.877 154.932 299.266 155.558 298.849C156.183 298.432 156.868 298.224 157.613 298.224C158.139 298.224 158.69 298.363 159.266 298.641L158 302.14C157.524 301.902 157.132 301.783 156.824 301.783C156.198 301.783 155.667 302.17 155.23 302.945C154.803 303.719 154.59 305.238 154.59 307.502L154.605 308.291V314.844H150.569V298.641Z" fill="black"/>
<path d="M171.21 300.904L168.693 303.421C167.67 302.408 166.742 301.902 165.908 301.902C165.451 301.902 165.094 302.001 164.836 302.2C164.578 302.389 164.449 302.627 164.449 302.915C164.449 303.133 164.528 303.337 164.687 303.525C164.856 303.704 165.263 303.952 165.908 304.27L167.397 305.015C168.966 305.789 170.043 306.578 170.629 307.383C171.215 308.187 171.508 309.13 171.508 310.212C171.508 311.652 170.977 312.853 169.914 313.816C168.862 314.779 167.447 315.261 165.67 315.261C163.307 315.261 161.421 314.337 160.011 312.491L162.513 309.765C162.989 310.321 163.545 310.773 164.181 311.121C164.826 311.458 165.397 311.627 165.893 311.627C166.429 311.627 166.861 311.498 167.189 311.24C167.517 310.982 167.68 310.684 167.68 310.346C167.68 309.721 167.09 309.11 165.908 308.514L164.538 307.829C161.917 306.509 160.606 304.856 160.606 302.87C160.606 301.589 161.098 300.497 162.081 299.594C163.074 298.68 164.34 298.224 165.878 298.224C166.931 298.224 167.919 298.457 168.842 298.924C169.775 299.38 170.565 300.041 171.21 300.904Z" fill="black"/>
<path d="M194.025 292.386H198.076V314.844H194.025V313.131C193.231 313.886 192.432 314.432 191.628 314.769C190.833 315.097 189.97 315.261 189.036 315.261C186.941 315.261 185.13 314.452 183.601 312.833C182.072 311.205 181.307 309.185 181.307 306.772C181.307 304.27 182.047 302.22 183.526 300.621C185.005 299.023 186.802 298.224 188.917 298.224C189.89 298.224 190.804 298.407 191.657 298.775C192.511 299.142 193.301 299.693 194.025 300.428V292.386ZM189.751 301.977C188.49 301.977 187.443 302.423 186.609 303.317C185.775 304.201 185.358 305.337 185.358 306.727C185.358 308.127 185.78 309.279 186.624 310.182C187.478 311.086 188.525 311.538 189.766 311.538C191.047 311.538 192.109 311.096 192.953 310.212C193.797 309.319 194.219 308.152 194.219 306.712C194.219 305.303 193.797 304.161 192.953 303.287C192.109 302.413 191.042 301.977 189.751 301.977Z" fill="black"/>
<path d="M214.16 298.641H218.211V314.844H214.16V313.131C213.366 313.886 212.567 314.432 211.762 314.769C210.968 315.097 210.104 315.261 209.171 315.261C207.076 315.261 205.264 314.452 203.735 312.833C202.206 311.205 201.442 309.185 201.442 306.772C201.442 304.27 202.182 302.22 203.661 300.621C205.14 299.023 206.937 298.224 209.052 298.224C210.025 298.224 210.938 298.407 211.792 298.775C212.646 299.142 213.435 299.693 214.16 300.428V298.641ZM209.886 301.977C208.625 301.977 207.578 302.423 206.744 303.317C205.91 304.201 205.493 305.337 205.493 306.727C205.493 308.127 205.915 309.279 206.759 310.182C207.612 311.086 208.66 311.538 209.901 311.538C211.182 311.538 212.244 311.096 213.088 310.212C213.932 309.319 214.354 308.152 214.354 306.712C214.354 305.303 213.932 304.161 213.088 303.287C212.244 302.413 211.177 301.977 209.886 301.977Z" fill="black"/>
<path d="M234.295 292.386H238.346V314.844H234.295V313.131C233.501 313.886 232.701 314.432 231.897 314.769C231.103 315.097 230.239 315.261 229.306 315.261C227.211 315.261 225.399 314.452 223.87 312.833C222.341 311.205 221.577 309.185 221.577 306.772C221.577 304.27 222.316 302.22 223.796 300.621C225.275 299.023 227.072 298.224 229.187 298.224C230.16 298.224 231.073 298.407 231.927 298.775C232.781 299.142 233.57 299.693 234.295 300.428V292.386ZM230.021 301.977C228.76 301.977 227.712 302.423 226.878 303.317C226.044 304.201 225.627 305.337 225.627 306.727C225.627 308.127 226.049 309.279 226.893 310.182C227.747 311.086 228.795 311.538 230.036 311.538C231.316 311.538 232.379 311.096 233.223 310.212C234.067 309.319 234.489 308.152 234.489 306.712C234.489 305.303 234.067 304.161 233.223 303.287C232.379 302.413 231.311 301.977 230.021 301.977Z" fill="black"/>
<path d="M249.292 292.937H261.399V297.047H257.408V314.844H253.179V297.047H249.292V292.937Z" fill="black"/>
<path d="M280.045 307.919H266.984C267.173 309.07 267.674 309.989 268.488 310.674C269.312 311.349 270.36 311.687 271.631 311.687C273.15 311.687 274.455 311.155 275.547 310.093L278.973 311.701C278.119 312.913 277.096 313.811 275.905 314.397C274.713 314.973 273.299 315.261 271.66 315.261C269.119 315.261 267.049 314.462 265.45 312.863C263.852 311.255 263.052 309.244 263.052 306.832C263.052 304.359 263.847 302.309 265.435 300.681C267.034 299.043 269.034 298.224 271.437 298.224C273.989 298.224 276.064 299.043 277.662 300.681C279.261 302.309 280.06 304.464 280.06 307.144L280.045 307.919ZM275.964 304.717C275.696 303.813 275.165 303.079 274.371 302.513C273.587 301.947 272.673 301.664 271.631 301.664C270.499 301.664 269.506 301.982 268.652 302.617C268.116 303.014 267.62 303.714 267.163 304.717H275.964Z" fill="black"/>
<path d="M299.212 301.917L295.831 303.779C295.196 303.113 294.565 302.652 293.94 302.394C293.324 302.135 292.599 302.006 291.765 302.006C290.246 302.006 289.015 302.463 288.072 303.376C287.139 304.28 286.672 305.442 286.672 306.861C286.672 308.241 287.124 309.368 288.027 310.242C288.931 311.116 290.117 311.552 291.587 311.552C293.404 311.552 294.818 310.932 295.831 309.691L299.033 311.88C297.295 314.134 294.843 315.261 291.676 315.261C288.827 315.261 286.593 314.417 284.974 312.729C283.366 311.041 282.562 309.065 282.562 306.802C282.562 305.233 282.954 303.788 283.738 302.468C284.523 301.148 285.615 300.11 287.015 299.355C288.424 298.601 289.998 298.224 291.736 298.224C293.344 298.224 294.789 298.546 296.069 299.192C297.35 299.827 298.398 300.736 299.212 301.917Z" fill="black"/>
<path d="M302.89 298.641H306.941V300.294C307.864 299.519 308.698 298.983 309.443 298.685C310.197 298.378 310.967 298.224 311.751 298.224C313.36 298.224 314.725 298.785 315.847 299.906C316.79 300.86 317.261 302.269 317.261 304.136V314.844H313.24V307.74C313.24 305.804 313.151 304.518 312.972 303.883C312.804 303.247 312.501 302.766 312.064 302.438C311.637 302.101 311.106 301.932 310.47 301.932C309.646 301.932 308.937 302.21 308.341 302.766C307.755 303.312 307.348 304.071 307.12 305.044C307 305.551 306.941 306.648 306.941 308.336V314.844H302.89V298.641Z" fill="black"/>
<path d="M328.818 298.224C330.347 298.224 331.782 298.606 333.122 299.37C334.472 300.135 335.525 301.172 336.279 302.483C337.034 303.793 337.411 305.208 337.411 306.727C337.411 308.256 337.029 309.686 336.264 311.016C335.51 312.347 334.477 313.389 333.167 314.144C331.856 314.888 330.412 315.261 328.833 315.261C326.51 315.261 324.524 314.437 322.876 312.789C321.238 311.131 320.419 309.12 320.419 306.757C320.419 304.225 321.347 302.116 323.204 300.428C324.832 298.958 326.703 298.224 328.818 298.224ZM328.878 302.051C327.617 302.051 326.564 302.493 325.72 303.376C324.886 304.25 324.469 305.372 324.469 306.742C324.469 308.152 324.882 309.294 325.706 310.167C326.54 311.041 327.592 311.478 328.863 311.478C330.134 311.478 331.191 311.036 332.035 310.153C332.879 309.269 333.301 308.132 333.301 306.742C333.301 305.352 332.884 304.225 332.05 303.362C331.226 302.488 330.168 302.051 328.878 302.051Z" fill="black"/>
<path d="M340.315 292.386H344.381V314.844H340.315V292.386Z" fill="black"/>
<path d="M355.684 298.224C357.213 298.224 358.648 298.606 359.988 299.37C361.339 300.135 362.391 301.172 363.146 302.483C363.9 303.793 364.277 305.208 364.277 306.727C364.277 308.256 363.895 309.686 363.131 311.016C362.376 312.347 361.344 313.389 360.033 314.144C358.722 314.888 357.278 315.261 355.699 315.261C353.376 315.261 351.39 314.437 349.742 312.789C348.104 311.131 347.285 309.12 347.285 306.757C347.285 304.225 348.213 302.116 350.07 300.428C351.698 298.958 353.57 298.224 355.684 298.224ZM355.744 302.051C354.483 302.051 353.431 302.493 352.587 303.376C351.753 304.25 351.336 305.372 351.336 306.742C351.336 308.152 351.748 309.294 352.572 310.167C353.406 311.041 354.458 311.478 355.729 311.478C357 311.478 358.057 311.036 358.901 310.153C359.745 309.269 360.167 308.132 360.167 306.742C360.167 305.352 359.75 304.225 358.916 303.362C358.092 302.488 357.035 302.051 355.744 302.051ZM356.489 289.839H361.299L355.848 295.677H352.929L356.489 289.839Z" fill="black"/>
<path d="M379.587 298.641H383.638V312.521C383.638 315.261 383.087 317.276 381.985 318.567C380.505 320.314 378.276 321.188 375.298 321.188C373.709 321.188 372.374 320.989 371.292 320.592C370.21 320.195 369.296 319.609 368.552 318.835C367.807 318.07 367.256 317.137 366.898 316.035H371.381C371.778 316.492 372.29 316.834 372.915 317.063C373.541 317.301 374.28 317.42 375.134 317.42C376.226 317.42 377.105 317.251 377.77 316.914C378.435 316.576 378.902 316.139 379.17 315.603C379.448 315.067 379.587 314.144 379.587 312.833C378.872 313.548 378.122 314.064 377.338 314.382C376.554 314.69 375.665 314.844 374.672 314.844C372.498 314.844 370.661 314.059 369.162 312.491C367.663 310.922 366.913 308.936 366.913 306.534C366.913 303.962 367.708 301.897 369.296 300.338C370.736 298.929 372.453 298.224 374.449 298.224C375.382 298.224 376.261 298.397 377.085 298.745C377.919 299.082 378.753 299.643 379.587 300.428V298.641ZM375.372 302.021C374.092 302.021 373.034 302.453 372.2 303.317C371.366 304.171 370.949 305.248 370.949 306.549C370.949 307.899 371.376 309.006 372.23 309.87C373.084 310.733 374.156 311.165 375.447 311.165C376.708 311.165 377.745 310.743 378.559 309.899C379.383 309.056 379.795 307.948 379.795 306.578C379.795 305.228 379.383 304.131 378.559 303.287C377.735 302.443 376.673 302.021 375.372 302.021Z" fill="black"/>
<path d="M410.936 301.917L407.555 303.779C406.92 303.113 406.289 302.652 405.664 302.394C405.048 302.135 404.323 302.006 403.49 302.006C401.97 302.006 400.739 302.463 399.796 303.376C398.863 304.28 398.396 305.442 398.396 306.861C398.396 308.241 398.848 309.368 399.751 310.242C400.655 311.116 401.841 311.552 403.311 311.552C405.128 311.552 406.542 310.932 407.555 309.691L410.757 311.88C409.02 314.134 406.567 315.261 403.4 315.261C400.551 315.261 398.317 314.417 396.698 312.729C395.09 311.041 394.286 309.065 394.286 306.802C394.286 305.233 394.678 303.788 395.462 302.468C396.247 301.148 397.339 300.11 398.739 299.355C400.149 298.601 401.722 298.224 403.46 298.224C405.068 298.224 406.513 298.546 407.793 299.192C409.074 299.827 410.122 300.736 410.936 301.917Z" fill="black"/>
<path d="M426.588 298.641H430.639V314.844H426.588V313.131C425.794 313.886 424.994 314.432 424.19 314.769C423.396 315.097 422.532 315.261 421.599 315.261C419.504 315.261 417.692 314.452 416.163 312.833C414.634 311.205 413.87 309.185 413.87 306.772C413.87 304.27 414.609 302.22 416.089 300.621C417.568 299.023 419.365 298.224 421.48 298.224C422.453 298.224 423.366 298.407 424.22 298.775C425.074 299.142 425.863 299.693 426.588 300.428V298.641ZM422.314 301.977C421.053 301.977 420.005 302.423 419.171 303.317C418.337 304.201 417.92 305.337 417.92 306.727C417.92 308.127 418.342 309.279 419.186 310.182C420.04 311.086 421.088 311.538 422.329 311.538C423.609 311.538 424.672 311.096 425.516 310.212C426.36 309.319 426.781 308.152 426.781 306.712C426.781 305.303 426.36 304.161 425.516 303.287C424.672 302.413 423.604 301.977 422.314 301.977Z" fill="black"/>
<path fill-rule="evenodd" clip-rule="evenodd" d="M111.193 314.844V298.641H107.112V314.844H111.193Z" fill="black"/>
<path d="M107.112 292.728V296.466H111.193V292.728H107.112Z" fill="black"/>
<path fill-rule="evenodd" clip-rule="evenodd" d="M178.358 314.844V298.641H174.278V314.844H178.358Z" fill="black"/>
<path d="M174.278 292.766V296.504H178.358V292.766H174.278Z" fill="black"/>
<path fill-rule="evenodd" clip-rule="evenodd" d="M391.382 314.844V298.641H387.301V314.844H391.382Z" fill="black"/>
<path d="M387.301 292.743V296.481H391.382V292.743H387.301Z" fill="black"/>
<path d="M137.208 332.093H148.08V336.159H141.334V340.135H148.08V344.141H141.334V354H137.208V332.093Z" fill="black"/>
<path d="M170.657 331.542H174.708V354H170.657V352.287C169.863 353.042 169.064 353.588 168.26 353.926C167.465 354.253 166.601 354.417 165.668 354.417C163.573 354.417 161.761 353.608 160.232 351.99C158.703 350.361 157.939 348.341 157.939 345.928C157.939 343.426 158.679 341.376 160.158 339.778C161.637 338.179 163.434 337.38 165.549 337.38C166.522 337.38 167.435 337.564 168.289 337.931C169.143 338.298 169.932 338.849 170.657 339.584V331.542ZM166.383 341.133C165.122 341.133 164.075 341.58 163.241 342.473C162.407 343.357 161.99 344.494 161.99 345.884C161.99 347.283 162.412 348.435 163.256 349.339C164.109 350.242 165.157 350.694 166.398 350.694C167.679 350.694 168.741 350.252 169.585 349.368C170.429 348.475 170.851 347.308 170.851 345.869C170.851 344.459 170.429 343.317 169.585 342.443C168.741 341.57 167.674 341.133 166.383 341.133Z" fill="black"/>
<path d="M195.051 347.075H181.99C182.179 348.227 182.681 349.145 183.495 349.83C184.319 350.505 185.366 350.843 186.637 350.843C188.156 350.843 189.462 350.312 190.554 349.249L193.979 350.858C193.125 352.069 192.103 352.967 190.911 353.553C189.72 354.129 188.305 354.417 186.667 354.417C184.125 354.417 182.055 353.618 180.457 352.019C178.858 350.411 178.059 348.4 178.059 345.988C178.059 343.516 178.853 341.465 180.442 339.837C182.04 338.199 184.041 337.38 186.443 337.38C188.995 337.38 191.07 338.199 192.668 339.837C194.267 341.465 195.066 343.62 195.066 346.301L195.051 347.075ZM190.971 343.873C190.703 342.97 190.171 342.235 189.377 341.669C188.593 341.103 187.679 340.82 186.637 340.82C185.505 340.82 184.512 341.138 183.658 341.773C183.122 342.17 182.626 342.87 182.169 343.873H190.971Z" fill="black"/>
<path d="M197.926 331.542H201.991V354H197.926V331.542Z" fill="black"/>
<path d="M213.012 332.093H217.301L222.811 347.656L228.396 332.093H232.685L224.792 354H220.771L213.012 332.093Z" fill="black"/>
<path d="M251.822 347.075H238.761C238.95 348.227 239.451 349.145 240.265 349.83C241.089 350.505 242.137 350.843 243.407 350.843C244.927 350.843 246.232 350.312 247.324 349.249L250.75 350.858C249.896 352.069 248.873 352.967 247.682 353.553C246.49 354.129 245.075 354.417 243.437 354.417C240.896 354.417 238.826 353.618 237.227 352.019C235.629 350.411 234.829 348.4 234.829 345.988C234.829 343.516 235.624 341.465 237.212 339.837C238.811 338.199 240.811 337.38 243.214 337.38C245.765 337.38 247.84 338.199 249.439 339.837C251.037 341.465 251.837 343.62 251.837 346.301L251.822 347.075ZM247.741 343.873C247.473 342.97 246.942 342.235 246.148 341.669C245.363 341.103 244.45 340.82 243.407 340.82C242.276 340.82 241.283 341.138 240.429 341.773C239.893 342.17 239.396 342.87 238.94 343.873H247.741Z" fill="black"/>
<path d="M254.696 331.542H258.762V354H254.696V331.542Z" fill="black"/>
<path d="M274.429 337.797H278.479V354H274.429V352.287C273.634 353.042 272.835 353.588 272.031 353.926C271.237 354.253 270.373 354.417 269.44 354.417C267.345 354.417 265.533 353.608 264.004 351.99C262.475 350.361 261.71 348.341 261.71 345.928C261.71 343.426 262.45 341.376 263.929 339.778C265.409 338.179 267.206 337.38 269.321 337.38C270.294 337.38 271.207 337.564 272.061 337.931C272.915 338.298 273.704 338.849 274.429 339.584V337.797ZM270.155 341.133C268.894 341.133 267.846 341.58 267.012 342.473C266.178 343.357 265.761 344.494 265.761 345.884C265.761 347.283 266.183 348.435 267.027 349.339C267.881 350.242 268.928 350.694 270.169 350.694C271.45 350.694 272.513 350.252 273.356 349.368C274.2 348.475 274.622 347.308 274.622 345.869C274.622 344.459 274.2 343.317 273.356 342.443C272.513 341.57 271.445 341.133 270.155 341.133ZM271.182 328.995H275.992L270.542 334.833H267.623L271.182 328.995Z" fill="black"/>
<path d="M281.89 337.797H294.325L287.028 350.56H293.908V354H280.773L288.1 341.237H281.89V337.797Z" fill="black"/>
<path d="M308.592 337.797H312.643V359.927H308.592V352.287C307.798 353.042 306.999 353.588 306.195 353.926C305.4 354.253 304.537 354.417 303.603 354.417C301.508 354.417 299.696 353.608 298.167 351.99C296.639 350.361 295.874 348.341 295.874 345.928C295.874 343.426 296.614 341.376 298.093 339.778C299.572 338.179 301.369 337.38 303.484 337.38C304.457 337.38 305.371 337.564 306.224 337.931C307.078 338.298 307.868 338.849 308.592 339.584V337.797ZM304.318 341.133C303.057 341.133 302.01 341.58 301.176 342.473C300.342 343.357 299.925 344.494 299.925 345.884C299.925 347.283 300.347 348.435 301.191 349.339C302.045 350.242 303.092 350.694 304.333 350.694C305.614 350.694 306.676 350.252 307.52 349.368C308.364 348.475 308.786 347.308 308.786 345.869C308.786 344.459 308.364 343.317 307.52 342.443C306.676 341.57 305.609 341.133 304.318 341.133Z" fill="black"/>
<path d="M316.739 337.797H320.849V345.601C320.849 347.12 320.953 348.177 321.162 348.773C321.37 349.358 321.703 349.815 322.159 350.143C322.626 350.47 323.197 350.634 323.872 350.634C324.547 350.634 325.118 350.475 325.585 350.158C326.061 349.83 326.414 349.354 326.642 348.728C326.811 348.261 326.895 347.264 326.895 345.735V337.797H330.976V344.662C330.976 347.492 330.752 349.428 330.306 350.47C329.76 351.741 328.955 352.719 327.893 353.404C326.831 354.079 325.48 354.417 323.842 354.417C322.065 354.417 320.625 354.02 319.523 353.226C318.431 352.431 317.662 351.324 317.215 349.905C316.897 348.922 316.739 347.135 316.739 344.543V337.797Z" fill="black"/>
<path d="M351.304 347.075H338.243C338.432 348.227 338.933 349.145 339.748 349.83C340.572 350.505 341.619 350.843 342.89 350.843C344.409 350.843 345.715 350.312 346.807 349.249L350.232 350.858C349.378 352.069 348.355 352.967 347.164 353.553C345.973 354.129 344.558 354.417 342.92 354.417C340.378 354.417 338.308 353.618 336.709 352.019C335.111 350.411 334.312 348.4 334.312 345.988C334.312 343.516 335.106 341.465 336.695 339.837C338.293 338.199 340.294 337.38 342.696 337.38C345.248 337.38 347.323 338.199 348.921 339.837C350.52 341.465 351.319 343.62 351.319 346.301L351.304 347.075ZM347.224 343.873C346.956 342.97 346.424 342.235 345.63 341.669C344.846 341.103 343.932 340.82 342.89 340.82C341.758 340.82 340.765 341.138 339.911 341.773C339.375 342.17 338.879 342.87 338.422 343.873H347.224Z" fill="black"/>
<path d="M353.91 337.797H366.346L359.048 350.56H365.929V354H352.793L360.121 341.237H353.91V337.797Z" fill="black"/>
<path fill-rule="evenodd" clip-rule="evenodd" d="M154.99 354V337.797H150.91V354H154.99Z" fill="black"/>
<path d="M107.112 292.728V296.466H111.193V292.728H107.112Z" fill="black"/>
<path d="M150.91 331.885V335.623H154.99V331.885H150.91Z" fill="black"/>
</svg>
